<svg xmlns="http://www.w3.org/2000/svg" viewBox="0 0 308.47 120.02"><defs><style>.cls-1{fill:#00b3e3;}.cls-2{fill:#ffc843;}.cls-3{fill:#008c3c;}.cls-4{fill:#da3ab3;}.cls-5{fill:#00299f;}.cls-6{fill:#ff4338;}.cls-7{fill:#ff6b00;}.cls-8{fill:#da1800;}.cls-9{fill:#05ce7c;}.cls-10{fill:#042f57;}.cls-11{fill:#002f32;}.cls-12{fill:#333;}</style></defs><title>Asset 4</title><g id="Layer_2" data-name="Layer 2"><g id="Layer_1-2" data-name="Layer 1"><path class="cls-1" d="M32.11,56.16H24.16v16.6h8V56.16m-24.55,0H2.75v16.6H7.56V56.16" transform="translate(-2.75 -20.58)"/><path class="cls-2" d="M32.11,20.63h-8.3A16.27,16.27,0,0,0,7.56,36.88V56.16h16.6V37.23h8V20.63M24.16,72.76H7.56v43.85h16.6V72.76" transform="translate(-2.75 -20.58)"/><polyline class="cls-3" points="21.42 35.58 4.82 35.58 4.82 52.18 21.42 52.18 21.42 35.58"/><path class="cls-4" d="M56.27,56.16H39.67V78.64a22.53,22.53,0,0,1,16.6-21.71v-.77" transform="translate(-2.75 -20.58)"/><path class="cls-1" d="M62.16,56.16a22.94,22.94,0,0,0-5.89.77V78.64a5.89,5.89,0,0,1,10-4.16L78.05,62.74a22.3,22.3,0,0,0-15.89-6.58" transform="translate(-2.75 -20.58)"/><path class="cls-5" d="M56.27,56.93a22.53,22.53,0,0,0-16.6,21.71v38h16.6V56.93" transform="translate(-2.75 -20.58)"/><polyline class="cls-1" points="100.2 35.7 83.6 35.7 83.6 96.03 100.2 96.03 100.2 35.7"/><polyline class="cls-6" points="100.2 0.27 83.6 0.27 83.6 17.79 100.2 17.79 100.2 0.27"/><path class="cls-7" d="M142.77,56.2a30.24,30.24,0,0,0-30.21,30.21c0,16.93,13.68,30.2,31.13,30.2,9,0,16.24-2.87,24.15-9.61L157.08,94.36c-4.9,4.17-8.73,5.33-13.71,5.33a12.58,12.58,0,0,1-7-1.85l-.55.23L119,105a29.44,29.44,0,0,1-6-13.61l17-7h0a13.05,13.05,0,0,1,7.69-10.53,11.41,11.41,0,0,1,4.71-1,13.19,13.19,0,0,1,8.05,2.75l.25.23,16.69-6.89a30.37,30.37,0,0,1,2.94,5.14A30.17,30.17,0,0,0,142.76,56.2m27.59,17.89,0,.06,0-.06m.07.14v0m.06.15v0m.05.12v0m3.33,7.86-16.75,6.91,16.75-6.91" transform="translate(-2.75 -20.58)"/><path class="cls-4" d="M170.34,74.05v0m0,.1,0,.08,0-.08m.05.1,0,.12,0-.12m.06.14,0,.11,0-.11m0,.13.05.12,3.26,7.71-3.26-7.71-.05-.12m-19.83,1.29-10.26,4.24-9.84,4.06-.6.25a13.36,13.36,0,0,0,5.84,13.13c.17.12.34.24.52.35l18.47-7.63,2.27-.94s-2-9.41-6.4-13.47" transform="translate(-2.75 -20.58)"/><path class="cls-8" d="M167.4,68.92l-16.69,6.89c4.42,4,6.4,13.42,6.41,13.46l16.74-6.91-3.26-7.71-.06-.12v0l0-.1v0l0-.12v0l0-.08,0-.06v0a29.71,29.71,0,0,0-2.94-5.14M130,84.36l-17,7A29.53,29.53,0,0,0,119,105l16.82-6.94.55-.23c-.18-.11-.35-.23-.52-.35A13.38,13.38,0,0,1,130,84.36" transform="translate(-2.75 -20.58)"/><path class="cls-4" d="M241.2,20.58H224.6V59.44a30.23,30.23,0,0,1,16.6,27V20.58m0,65.83a30.23,30.23,0,0,1-16.6,27v3.24h16.6V86.41" transform="translate(-2.75 -20.58)"/><path class="cls-9" d="M211,56.2a30.21,30.21,0,1,0,13.6,57.17v-27A13.61,13.61,0,1,1,211,72.8a13.6,13.6,0,0,1,13.6,13.61v-27A29.9,29.9,0,0,0,211,56.2" transform="translate(-2.75 -20.58)"/><path class="cls-10" d="M224.6,59.44v53.93a30.23,30.23,0,0,0,16.6-27h0a30.23,30.23,0,0,0-16.6-27" transform="translate(-2.75 -20.58)"/><path class="cls-6" d="M311.21,56.2h-16.6v3.24a30.25,30.25,0,0,1,16.6,27V56.2m0,30.21a30.25,30.25,0,0,1-16.6,27v3.24h16.6V86.41" transform="translate(-2.75 -20.58)"/><path class="cls-1" d="M281,56.2a30.21,30.21,0,1,0,13.6,57.17v-27A13.61,13.61,0,1,1,281,72.8a13.6,13.6,0,0,1,13.6,13.61v-27A29.93,29.93,0,0,0,281,56.2" transform="translate(-2.75 -20.58)"/><path class="cls-11" d="M294.61,59.44v53.93a30.25,30.25,0,0,0,16.6-27h0a30.25,30.25,0,0,0-16.6-27" transform="translate(-2.75 -20.58)"/><path class="cls-12" d="M17.21,129.09l-4.29,9.48a3.75,3.75,0,0,1-1.11,1.57,2.45,2.45,0,0,1-1.5.46,3,3,0,0,1-1.08-.19,2.25,2.25,0,0,1-.85-.56l.4-.61a2.06,2.06,0,0,0,1.55.66,1.63,1.63,0,0,0,1-.34,3,3,0,0,0,.8-1.15l.45-1-3.76-8.31H9.7l3.35,7.47,3.34-7.47Z" transform="translate(-2.75 -20.58)"/><path class="cls-12" d="M19.84,137a4.05,4.05,0,0,1-1.5-1.52,4.67,4.67,0,0,1,0-4.36,4.05,4.05,0,0,1,1.5-1.52,4.49,4.49,0,0,1,4.27,0,3.91,3.91,0,0,1,1.5,1.52,4.67,4.67,0,0,1,0,4.36,3.91,3.91,0,0,1-1.5,1.52,4.49,4.49,0,0,1-4.27,0Zm3.86-.63a3.33,3.33,0,0,0,1.2-1.24,3.81,3.81,0,0,0,.44-1.83,3.74,3.74,0,0,0-.44-1.82,3.28,3.28,0,0,0-1.2-1.25,3.51,3.51,0,0,0-3.44,0,3.14,3.14,0,0,0-1.2,1.25,3.63,3.63,0,0,0-.44,1.82,3.7,3.7,0,0,0,.44,1.83,3.18,3.18,0,0,0,1.2,1.24,3.51,3.51,0,0,0,3.44,0Z" transform="translate(-2.75 -20.58)"/><path class="cls-12" d="M35.94,129.09v8.35h-.76v-1.79A3.08,3.08,0,0,1,33.94,137a3.61,3.61,0,0,1-1.92.49,3.5,3.5,0,0,1-2.56-.91,3.54,3.54,0,0,1-.92-2.62v-4.88h.8v4.81a3,3,0,0,0,.72,2.15,2.7,2.7,0,0,0,2,.73,2.89,2.89,0,0,0,2.23-.88,3.33,3.33,0,0,0,.82-2.37v-4.44Z" transform="translate(-2.75 -20.58)"/><path class="cls-12" d="M41.3,129.51a3.79,3.79,0,0,1,2-.49v.79l-.19,0a2.78,2.78,0,0,0-2.18.87,3.51,3.51,0,0,0-.78,2.43v4.35h-.8v-8.35h.76v1.82A2.9,2.9,0,0,1,41.3,129.51Z" transform="translate(-2.75 -20.58)"/><path class="cls-12" d="M56.06,129.56a3.81,3.81,0,0,1,1.48,1.5,4.56,4.56,0,0,1,.53,2.2,4.49,4.49,0,0,1-.53,2.19A4,4,0,0,1,56.06,137a4.21,4.21,0,0,1-2.12.54,4,4,0,0,1-2-.53,3.69,3.69,0,0,1-1.4-1.5v2h-.77V125.56h.8V131a3.66,3.66,0,0,1,1.39-1.45,3.9,3.9,0,0,1,2-.52A4.21,4.21,0,0,1,56.06,129.56Zm-.44,6.77a3.14,3.14,0,0,0,1.21-1.24,3.81,3.81,0,0,0,.44-1.83,3.74,3.74,0,0,0-.44-1.82,3.1,3.1,0,0,0-1.21-1.25,3.51,3.51,0,0,0-3.44,0,3.14,3.14,0,0,0-1.2,1.25,3.63,3.63,0,0,0-.44,1.82,3.7,3.7,0,0,0,.44,1.83,3.18,3.18,0,0,0,1.2,1.24,3.51,3.51,0,0,0,3.44,0Z" transform="translate(-2.75 -20.58)"/><path class="cls-12" d="M67.86,129.09v8.35H67.1v-1.79A3.08,3.08,0,0,1,65.86,137a3.61,3.61,0,0,1-1.92.49A3.19,3.19,0,0,1,60.46,134v-4.88h.8v4.81a3,3,0,0,0,.72,2.15,2.7,2.7,0,0,0,2,.73,2.89,2.89,0,0,0,2.23-.88,3.33,3.33,0,0,0,.82-2.37v-4.44Z" transform="translate(-2.75 -20.58)"/><path class="cls-12" d="M71.19,126.87a.6.6,0,0,1-.19-.46.62.62,0,0,1,.19-.46.63.63,0,0,1,.47-.19.65.65,0,0,1,.46.18.6.6,0,0,1,.19.46.65.65,0,0,1-.65.65A.66.66,0,0,1,71.19,126.87Zm.07,2.22h.8v8.35h-.8Z" transform="translate(-2.75 -20.58)"/><path class="cls-12" d="M75.43,125.56h.8v11.88h-.8Z" transform="translate(-2.75 -20.58)"/><path class="cls-12" d="M87,125.56v11.88h-.78v-2a3.57,3.57,0,0,1-1.4,1.5,3.91,3.91,0,0,1-2,.53,4.17,4.17,0,0,1-2.11-.54,4,4,0,0,1-1.48-1.51,4.38,4.38,0,0,1-.53-2.19,4.45,4.45,0,0,1,.53-2.2,3.81,3.81,0,0,1,1.48-1.5,4.17,4.17,0,0,1,2.11-.54,3.87,3.87,0,0,1,2,.53,3.74,3.74,0,0,1,1.4,1.47v-5.46Zm-2.44,10.77a3.18,3.18,0,0,0,1.2-1.24,3.81,3.81,0,0,0,.44-1.83,3.74,3.74,0,0,0-.44-1.82,3.14,3.14,0,0,0-1.2-1.25,3.51,3.51,0,0,0-3.44,0,3.14,3.14,0,0,0-1.2,1.25,3.74,3.74,0,0,0-.44,1.82,3.81,3.81,0,0,0,.44,1.83,3.18,3.18,0,0,0,1.2,1.24,3.51,3.51,0,0,0,3.44,0Z" transform="translate(-2.75 -20.58)"/><path class="cls-12" d="M107.36,129.93a3.64,3.64,0,0,1,.89,2.63v4.88h-.8v-4.82a3,3,0,0,0-.69-2.14,2.51,2.51,0,0,0-1.92-.74,2.89,2.89,0,0,0-2.23.88,3.34,3.34,0,0,0-.83,2.37v4.45H101v-4.82a3,3,0,0,0-.69-2.14,2.48,2.48,0,0,0-1.92-.74,2.91,2.91,0,0,0-2.23.88,3.33,3.33,0,0,0-.82,2.37v4.45h-.8v-8.35h.77v1.79a3,3,0,0,1,1.24-1.37,3.73,3.73,0,0,1,2-.49,3.46,3.46,0,0,1,1.92.51,2.78,2.78,0,0,1,1.13,1.51,3.29,3.29,0,0,1,1.31-1.48,3.89,3.89,0,0,1,2.07-.54A3.24,3.24,0,0,1,107.36,129.93Z" transform="translate(-2.75 -20.58)"/><path class="cls-12" d="M116.74,129.81a3.06,3.06,0,0,1,.83,2.33v5.3h-.76V136a2.8,2.8,0,0,1-1.17,1.14,3.9,3.9,0,0,1-1.84.41,3.43,3.43,0,0,1-2.2-.65,2.27,2.27,0,0,1-.06-3.42,3.55,3.55,0,0,1,2.37-.65h2.86v-.67a2.37,2.37,0,0,0-.63-1.78,2.57,2.57,0,0,0-1.85-.6,4.51,4.51,0,0,0-1.59.28,4,4,0,0,0-1.28.77l-.41-.58a4.57,4.57,0,0,1,1.51-.87,5.69,5.69,0,0,1,1.84-.31A3.3,3.3,0,0,1,116.74,129.81Zm-1.06,6.55a2.85,2.85,0,0,0,1.09-1.39V133.4h-2.84a2.85,2.85,0,0,0-1.79.45,1.5,1.5,0,0,0-.55,1.24,1.52,1.52,0,0,0,.61,1.28,2.68,2.68,0,0,0,1.71.48A3.09,3.09,0,0,0,115.68,136.36Z" transform="translate(-2.75 -20.58)"/><path class="cls-12" d="M127.43,129.93a3.56,3.56,0,0,1,.91,2.63v4.88h-.8v-4.82a3,3,0,0,0-.71-2.14,2.64,2.64,0,0,0-2-.74,3.05,3.05,0,0,0-2.32.88,3.26,3.26,0,0,0-.85,2.37v4.45h-.8v-8.35h.77v1.8a3.22,3.22,0,0,1,1.29-1.37,4,4,0,0,1,2-.5A3.34,3.34,0,0,1,127.43,129.93Z" transform="translate(-2.75 -20.58)"/><path class="cls-12" d="M136.84,129.81a3.1,3.1,0,0,1,.83,2.33v5.3h-.77V136a2.69,2.69,0,0,1-1.17,1.14,3.88,3.88,0,0,1-1.84.41,3.45,3.45,0,0,1-2.2-.65,2.15,2.15,0,0,1-.8-1.73,2.11,2.11,0,0,1,.74-1.69,3.6,3.6,0,0,1,2.38-.65h2.86v-.67a2.37,2.37,0,0,0-.63-1.78,2.59,2.59,0,0,0-1.85-.6,4.47,4.47,0,0,0-1.59.28,3.92,3.92,0,0,0-1.29.77l-.4-.58a4.62,4.62,0,0,1,1.5-.87,5.69,5.69,0,0,1,1.84-.31A3.33,3.33,0,0,1,136.84,129.81Zm-1.07,6.55a2.86,2.86,0,0,0,1.1-1.39V133.4H134a2.82,2.82,0,0,0-1.78.45,1.5,1.5,0,0,0-.55,1.24,1.53,1.53,0,0,0,.6,1.28,2.73,2.73,0,0,0,1.72.48A3,3,0,0,0,135.77,136.36Z" transform="translate(-2.75 -20.58)"/><path class="cls-12" d="M148.5,129.09v7.45a4.1,4.1,0,0,1-1,3.07,4.17,4.17,0,0,1-3,1,6.5,6.5,0,0,1-2.17-.35,4.3,4.3,0,0,1-1.65-1l.43-.61a4.44,4.44,0,0,0,1.51.89,5.26,5.26,0,0,0,1.87.33,3.35,3.35,0,0,0,2.46-.8,3.29,3.29,0,0,0,.8-2.45v-1.41a3.5,3.5,0,0,1-1.42,1.41,4.23,4.23,0,0,1-2.05.49,4.32,4.32,0,0,1-2.12-.52,3.87,3.87,0,0,1-1.5-1.45,4,4,0,0,1-.54-2.09,4.1,4.1,0,0,1,.54-2.1,3.84,3.84,0,0,1,1.5-1.44,4.43,4.43,0,0,1,2.12-.51,4.24,4.24,0,0,1,2.08.51,3.46,3.46,0,0,1,1.42,1.44v-1.88Zm-2.45,6.9a3.11,3.11,0,0,0,1.23-1.18,3.46,3.46,0,0,0,.44-1.74,3.4,3.4,0,0,0-.44-1.73,3.17,3.17,0,0,0-1.23-1.18,3.66,3.66,0,0,0-1.76-.42,3.62,3.62,0,0,0-1.75.42,3.12,3.12,0,0,0-1.21,1.18,3.3,3.3,0,0,0-.44,1.73,3.36,3.36,0,0,0,.44,1.74,3.05,3.05,0,0,0,1.21,1.18,3.62,3.62,0,0,0,1.75.42A3.66,3.66,0,0,0,146.05,136Z" transform="translate(-2.75 -20.58)"/><path class="cls-12" d="M159,133.45h-7.18a3.49,3.49,0,0,0,.49,1.74,3.09,3.09,0,0,0,1.26,1.17,4,4,0,0,0,3.29.12,2.79,2.79,0,0,0,1.16-.87l.47.53a3.66,3.66,0,0,1-1.37,1,4.59,4.59,0,0,1-1.78.35,4.52,4.52,0,0,1-2.23-.54,4,4,0,0,1-1.53-1.51,4.39,4.39,0,0,1-.55-2.19,4.48,4.48,0,0,1,.52-2.18A3.82,3.82,0,0,1,155,129a3.89,3.89,0,0,1,2,.54,3.8,3.8,0,0,1,1.43,1.49,4.58,4.58,0,0,1,.51,2.18Zm-5.55-3.33a3,3,0,0,0-1.13,1.1,3.62,3.62,0,0,0-.49,1.61h6.4a3.3,3.3,0,0,0-.48-1.6,3.1,3.1,0,0,0-2.72-1.5A3.19,3.19,0,0,0,153.4,130.12Z" transform="translate(-2.75 -20.58)"/><path class="cls-12" d="M163.41,129.51a3.79,3.79,0,0,1,2-.49v.79l-.19,0a2.78,2.78,0,0,0-2.18.87,3.51,3.51,0,0,0-.78,2.43v4.35h-.8v-8.35h.76v1.82A2.9,2.9,0,0,1,163.41,129.51Z" transform="translate(-2.75 -20.58)"/></g></g></svg>