<svg xmlns="http://www.w3.org/2000/svg" viewBox="0 0 308.47 96.03"><defs><style>.cls-1{fill:#00b3e3;}.cls-2{fill:#ffc843;}.cls-3{fill:#008c3c;}.cls-4{fill:#da3ab3;}.cls-5{fill:#00299f;}.cls-6{fill:#ff4338;}.cls-7{fill:#ff6b00;}.cls-8{fill:#da1800;}.cls-9{fill:#05ce7c;}.cls-10{fill:#042f57;}.cls-11{fill:#002f32;}</style></defs><title>Asset 3</title><g id="Layer_2" data-name="Layer 2"><g id="Layer_1-2" data-name="Layer 1"><path class="cls-1" d="M32.11,56.16H24.16v16.6h8V56.16m-24.55,0H2.75v16.6H7.56V56.16" transform="translate(-2.75 -20.58)"/><path class="cls-2" d="M32.11,20.63h-8.3A16.27,16.27,0,0,0,7.56,36.88V56.16h16.6V37.23h8V20.63M24.16,72.76H7.56v43.85h16.6V72.76" transform="translate(-2.75 -20.58)"/><polyline class="cls-3" points="21.42 35.58 4.82 35.58 4.82 52.18 21.42 52.18 21.42 35.58"/><path class="cls-4" d="M56.27,56.16H39.67V78.64a22.53,22.53,0,0,1,16.6-21.71v-.77" transform="translate(-2.75 -20.58)"/><path class="cls-1" d="M62.16,56.16a22.94,22.94,0,0,0-5.89.77V78.64a5.89,5.89,0,0,1,10-4.16L78.05,62.74a22.3,22.3,0,0,0-15.89-6.58" transform="translate(-2.75 -20.58)"/><path class="cls-5" d="M56.27,56.93a22.53,22.53,0,0,0-16.6,21.71v38h16.6V56.93" transform="translate(-2.75 -20.58)"/><polyline class="cls-1" points="100.2 35.7 83.6 35.7 83.6 96.03 100.2 96.03 100.2 35.7"/><polyline class="cls-6" points="100.2 0.27 83.6 0.27 83.6 17.79 100.2 17.79 100.2 0.27"/><path class="cls-7" d="M142.77,56.2a30.24,30.24,0,0,0-30.21,30.21c0,16.93,13.68,30.2,31.13,30.2,9,0,16.24-2.87,24.15-9.61L157.08,94.36c-4.9,4.17-8.73,5.33-13.71,5.33a12.58,12.58,0,0,1-7-1.85l-.55.23L119,105a29.44,29.44,0,0,1-6-13.61l17-7h0a13.05,13.05,0,0,1,7.69-10.53,11.41,11.41,0,0,1,4.71-1,13.19,13.19,0,0,1,8.05,2.75l.25.23,16.69-6.89a30.37,30.37,0,0,1,2.94,5.14A30.17,30.17,0,0,0,142.76,56.2m27.59,17.89,0,.06,0-.06m.07.14v0m.06.15v0m.05.12v0m3.33,7.86-16.75,6.91,16.75-6.91" transform="translate(-2.75 -20.58)"/><path class="cls-4" d="M170.34,74.05v0m0,.1,0,.08,0-.08m.05.1,0,.12,0-.12m.06.14,0,.11,0-.11m0,.13.05.12,3.26,7.71-3.26-7.71-.05-.12m-19.83,1.29-10.26,4.24-9.84,4.06-.6.25a13.36,13.36,0,0,0,5.84,13.13c.17.12.34.24.52.35l18.47-7.63,2.27-.94s-2-9.41-6.4-13.47" transform="translate(-2.75 -20.58)"/><path class="cls-8" d="M167.4,68.92l-16.69,6.89c4.42,4,6.4,13.42,6.41,13.46l16.74-6.91-3.26-7.71-.06-.12v0l0-.1v0l0-.12v0l0-.08,0-.06v0a29.71,29.71,0,0,0-2.94-5.14M130,84.36l-17,7A29.53,29.53,0,0,0,119,105l16.82-6.94.55-.23c-.18-.11-.35-.23-.52-.35A13.38,13.38,0,0,1,130,84.36" transform="translate(-2.75 -20.58)"/><path class="cls-4" d="M241.2,20.58H224.6V59.44a30.23,30.23,0,0,1,16.6,27V20.58m0,65.83a30.23,30.23,0,0,1-16.6,27v3.24h16.6V86.41" transform="translate(-2.75 -20.58)"/><path class="cls-9" d="M211,56.2a30.21,30.21,0,1,0,13.6,57.17v-27A13.61,13.61,0,1,1,211,72.8a13.6,13.6,0,0,1,13.6,13.61v-27A29.9,29.9,0,0,0,211,56.2" transform="translate(-2.75 -20.58)"/><path class="cls-10" d="M224.6,59.44v53.93a30.23,30.23,0,0,0,16.6-27h0a30.23,30.23,0,0,0-16.6-27" transform="translate(-2.75 -20.58)"/><path class="cls-6" d="M311.21,56.2h-16.6v3.24a30.25,30.25,0,0,1,16.6,27V56.2m0,30.21a30.25,30.25,0,0,1-16.6,27v3.24h16.6V86.41" transform="translate(-2.75 -20.58)"/><path class="cls-1" d="M281,56.2a30.21,30.21,0,1,0,13.6,57.17v-27A13.61,13.61,0,1,1,281,72.8a13.6,13.6,0,0,1,13.6,13.61v-27A29.93,29.93,0,0,0,281,56.2" transform="translate(-2.75 -20.58)"/><path class="cls-11" d="M294.61,59.44v53.93a30.25,30.25,0,0,0,16.6-27h0a30.25,30.25,0,0,0-16.6-27" transform="translate(-2.75 -20.58)"/></g></g></svg>